<svg width="80" height="80" viewBox="0 0 80 80" fill="none" xmlns="http://www.w3.org/2000/svg">
<rect width="80" height="80" fill="#603776"/>
<path d="M11.3842 63.0001V56.9999L15.8718 56.0633V27.3505L11.3842 26.4139V20.3845H31.9376L42.4687 48.4534H42.6482L52.8801 20.3845H73.1942V26.4139L68.6766 27.3505V56.0633L73.1942 56.9999V63.0001H53.6878V56.9999L58.3849 56.0633V50.5022L58.6243 30.453L58.4448 30.4238L46.1187 63.0001H37.8614L25.3557 30.8043L25.1463 30.8335L25.8643 49.0973V56.0633L30.9204 56.9999V63.0001H11.3842Z" fill="black"/>
<path d="M7 58.6155V52.6154L11.4877 51.6788V22.966L7 22.0294V16H27.5535L38.0845 44.0689H38.264L48.4959 16H68.8101V22.0294L64.2925 22.966V51.6788L68.8101 52.6154V58.6155H49.3037V52.6154L54.0008 51.6788V46.1177L54.2401 26.0685L54.0606 26.0392L41.7345 58.6155H33.4772L20.9716 26.4197L20.7622 26.449L21.4802 44.7128V51.6788L26.5363 52.6154V58.6155H7Z" fill="#FED000"/>
</svg>
